# Blender 4.2.0
# www.blender.org
mtllib Magnet.mtl
o Circle
v -0.150000 -0.018264 0.672764
v -0.150000 0.176826 0.653549
v -0.150000 0.364420 0.596643
v -0.150000 0.537306 0.504234
v -0.150000 0.688843 0.379871
v -0.150000 0.813206 0.228334
v -0.150000 0.905616 0.055447
v -0.150000 0.962521 -0.132146
v -0.150000 0.981736 -1.567163
v 0.150000 -0.018264 0.672764
v 0.150000 0.176826 0.653549
v 0.150000 0.364420 0.596643
v 0.150000 0.537306 0.504234
v 0.150000 0.688843 0.379871
v 0.150000 0.813206 0.228334
v 0.150000 0.905616 0.055447
v 0.150000 0.962521 -0.132146
v 0.150000 0.981736 -1.567163
v -0.150000 -0.067272 0.175172
v -0.150000 0.078809 0.160784
v -0.150000 0.172152 0.132469
v -0.150000 0.258177 0.086487
v -0.150000 0.333579 0.024607
v -0.150000 0.395459 -0.050795
v -0.150000 0.441441 -0.136820
v -0.150000 0.463513 -0.209584
v -0.150000 0.481781 -1.573858
v 0.150000 -0.067273 0.175172
v 0.150000 0.078809 0.160784
v 0.150000 0.172152 0.132469
v 0.150000 0.258177 0.086487
v 0.150000 0.333579 0.024607
v 0.150000 0.395459 -0.050795
v 0.150000 0.441441 -0.136820
v 0.150000 0.463513 -0.209584
v 0.150000 0.481781 -1.573858
v -0.150000 0.018264 0.672764
v -0.150000 -0.176826 0.653549
v -0.150000 -0.364420 0.596643
v -0.150000 -0.537306 0.504234
v -0.150000 -0.688843 0.379871
v -0.150000 -0.813206 0.228334
v -0.150000 -0.905616 0.055447
v -0.150000 -0.962521 -0.132146
v -0.150000 -0.981736 -1.567163
v 0.150000 0.018264 0.672764
v 0.150000 -0.176826 0.653549
v 0.150000 -0.364420 0.596643
v 0.150000 -0.537306 0.504234
v 0.150000 -0.688843 0.379871
v 0.150000 -0.813206 0.228334
v 0.150000 -0.905616 0.055447
v 0.150000 -0.962521 -0.132146
v 0.150000 -0.981736 -1.567163
v -0.150000 0.067273 0.175172
v -0.150000 -0.078809 0.160784
v -0.150000 -0.172152 0.132469
v -0.150000 -0.258177 0.086487
v -0.150000 -0.333579 0.024607
v -0.150000 -0.395459 -0.050795
v -0.150000 -0.441441 -0.136820
v -0.150000 -0.463513 -0.209584
v -0.150000 -0.481781 -1.573858
v 0.150000 0.067272 0.175172
v 0.150000 -0.078809 0.160784
v 0.150000 -0.172152 0.132469
v 0.150000 -0.258177 0.086487
v 0.150000 -0.333579 0.024607
v 0.150000 -0.395459 -0.050795
v 0.150000 -0.441441 -0.136820
v 0.150000 -0.463513 -0.209584
v 0.150000 -0.481781 -1.573858
vn -0.0000 0.9569 0.2903
vn -0.0000 0.7730 0.6344
vn -0.0000 0.4714 0.8819
vn -0.0000 0.0980 0.9952
vn -0.0000 0.9999 0.0134
vn -0.0000 0.8819 0.4714
vn -0.0000 0.6344 0.7730
vn -0.0000 0.2903 0.9569
vn -0.0000 -0.9569 -0.2903
vn -0.0000 -0.7730 -0.6344
vn -0.0000 -0.4714 -0.8819
vn -0.0000 -0.0980 -0.9952
vn -0.0000 -0.9999 -0.0134
vn -0.0000 -0.8819 -0.4714
vn -0.0000 -0.6344 -0.7730
vn -0.0000 -0.2903 -0.9569
vn -1.0000 -0.0000 -0.0000
vn 1.0000 -0.0000 -0.0000
vn -0.0000 -0.9952 0.0980
vn -0.0000 0.0134 -0.9999
vn -0.0000 -0.9569 0.2903
vn -0.0000 -0.7730 0.6344
vn -0.0000 -0.4714 0.8819
vn -0.0000 -0.0980 0.9952
vn -0.0000 -0.9999 0.0134
vn -0.0000 -0.8819 0.4714
vn -0.0000 -0.6344 0.7730
vn -0.0000 -0.2903 0.9569
vn -0.0000 0.9569 -0.2903
vn -0.0000 0.7730 -0.6344
vn -0.0000 0.4714 -0.8819
vn -0.0000 0.0980 -0.9952
vn -0.0000 0.9999 -0.0134
vn -0.0000 0.8819 -0.4714
vn -0.0000 0.6344 -0.7730
vn -0.0000 0.2903 -0.9569
vn -0.0000 0.9952 0.0980
vn -0.0000 -0.0134 -0.9999
vt 0.000000 0.000000
s 0
f 8/1/1 7/1/1 16/1/1 17/1/1
f 6/1/2 5/1/2 14/1/2 15/1/2
f 4/1/3 3/1/3 12/1/3 13/1/3
f 2/1/4 1/1/4 10/1/4 11/1/4
f 9/1/5 8/1/5 17/1/5 18/1/5
f 7/1/6 6/1/6 15/1/6 16/1/6
f 5/1/7 4/1/7 13/1/7 14/1/7
f 3/1/8 2/1/8 11/1/8 12/1/8
f 26/1/9 35/1/9 34/1/9 25/1/9
f 24/1/10 33/1/10 32/1/10 23/1/10
f 22/1/11 31/1/11 30/1/11 21/1/11
f 20/1/12 29/1/12 28/1/12 19/1/12
f 27/1/13 36/1/13 35/1/13 26/1/13
f 25/1/14 34/1/14 33/1/14 24/1/14
f 23/1/15 32/1/15 31/1/15 22/1/15
f 21/1/16 30/1/16 29/1/16 20/1/16
f 1/1/17 2/1/17 20/1/17 19/1/17
f 2/1/17 3/1/17 21/1/17 20/1/17
f 3/1/17 4/1/17 22/1/17 21/1/17
f 4/1/17 5/1/17 23/1/17 22/1/17
f 5/1/17 6/1/17 24/1/17 23/1/17
f 6/1/17 7/1/17 25/1/17 24/1/17
f 7/1/17 8/1/17 26/1/17 25/1/17
f 8/1/17 9/1/17 27/1/17 26/1/17
f 11/1/18 10/1/18 28/1/18 29/1/18
f 12/1/18 11/1/18 29/1/18 30/1/18
f 13/1/18 12/1/18 30/1/18 31/1/18
f 14/1/18 13/1/18 31/1/18 32/1/18
f 15/1/18 14/1/18 32/1/18 33/1/18
f 16/1/18 15/1/18 33/1/18 34/1/18
f 17/1/18 16/1/18 34/1/18 35/1/18
f 18/1/18 17/1/18 35/1/18 36/1/18
f 10/1/19 1/1/19 19/1/19 28/1/19
f 9/1/20 18/1/20 36/1/20 27/1/20
f 44/1/21 53/1/21 52/1/21 43/1/21
f 42/1/22 51/1/22 50/1/22 41/1/22
f 40/1/23 49/1/23 48/1/23 39/1/23
f 38/1/24 47/1/24 46/1/24 37/1/24
f 45/1/25 54/1/25 53/1/25 44/1/25
f 43/1/26 52/1/26 51/1/26 42/1/26
f 41/1/27 50/1/27 49/1/27 40/1/27
f 39/1/28 48/1/28 47/1/28 38/1/28
f 62/1/29 61/1/29 70/1/29 71/1/29
f 60/1/30 59/1/30 68/1/30 69/1/30
f 58/1/31 57/1/31 66/1/31 67/1/31
f 56/1/32 55/1/32 64/1/32 65/1/32
f 63/1/33 62/1/33 71/1/33 72/1/33
f 61/1/34 60/1/34 69/1/34 70/1/34
f 59/1/35 58/1/35 67/1/35 68/1/35
f 57/1/36 56/1/36 65/1/36 66/1/36
f 37/1/17 55/1/17 56/1/17 38/1/17
f 38/1/17 56/1/17 57/1/17 39/1/17
f 39/1/17 57/1/17 58/1/17 40/1/17
f 40/1/17 58/1/17 59/1/17 41/1/17
f 41/1/17 59/1/17 60/1/17 42/1/17
f 42/1/17 60/1/17 61/1/17 43/1/17
f 43/1/17 61/1/17 62/1/17 44/1/17
f 44/1/17 62/1/17 63/1/17 45/1/17
f 47/1/18 65/1/18 64/1/18 46/1/18
f 48/1/18 66/1/18 65/1/18 47/1/18
f 49/1/18 67/1/18 66/1/18 48/1/18
f 50/1/18 68/1/18 67/1/18 49/1/18
f 51/1/18 69/1/18 68/1/18 50/1/18
f 52/1/18 70/1/18 69/1/18 51/1/18
f 53/1/18 71/1/18 70/1/18 52/1/18
f 54/1/18 72/1/18 71/1/18 53/1/18
f 46/1/37 64/1/37 55/1/37 37/1/37
f 45/1/38 63/1/38 72/1/38 54/1/38
