# Blender 4.1.1
# www.blender.org
mtllib Viper.mtl
o Viper-Elite.001
v -8.497342 -9.544147 -23.469999
v -8.000000 -9.192736 -23.469999
v -7.470000 -10.533372 -24.000000
v -8.146272 -9.525082 -23.469999
v -7.984519 -9.765601 -23.776001
v -7.844767 -9.863057 -23.844769
v -7.942368 -9.937062 -23.844769
v -23.142443 -15.999999 -23.469999
v -23.848919 -15.899278 -23.395674
v -24.326975 -15.346051 -24.000000
v -23.582277 -15.970390 -23.421989
v -23.862970 -15.848595 -23.758055
v -24.230766 -15.656220 -23.827345
v -23.682304 -15.809197 -23.843876
v -31.433834 -0.229913 -23.469999
v -33.325195 -0.033887 -24.000000
v -31.447636 0.257938 -23.469999
v -32.338223 -0.030198 -23.844769
v -32.082462 -0.002230 -23.776001
v -32.339977 0.012567 -23.844769
v -31.672356 0.008287 -23.469999
v -8.000000 10.651989 -23.469999
v -8.487766 10.979519 -23.469999
v -7.470000 12.039724 -24.000000
v -8.143536 10.978131 -23.469999
v -7.981427 11.232875 -23.776001
v -7.932436 11.410166 -23.844769
v -7.844767 11.345860 -23.844769
v -24.219742 15.683265 -23.489279
v -23.142441 16.000002 -23.469999
v -24.335241 15.329518 -24.000000
v -23.700552 15.907231 -23.469910
v -23.932247 15.806597 -23.778057
v -23.680004 15.804473 -23.843761
v -24.359690 15.576016 -23.853907
v 8.497342 -9.544147 -23.469999
v 8.000000 -9.192736 -23.469999
v 7.470000 -10.533372 -24.000000
v 8.146272 -9.525082 -23.469999
v 7.984519 -9.765601 -23.776001
v 7.844767 -9.863057 -23.844769
v 7.942368 -9.937062 -23.844769
v 23.142443 -15.999999 -23.469999
v 23.848919 -15.899278 -23.395674
v 24.326975 -15.346051 -24.000000
v 23.582277 -15.970390 -23.421989
v 23.862970 -15.848595 -23.758055
v 24.230766 -15.656220 -23.827345
v 23.682304 -15.809197 -23.843876
v 31.433834 -0.229913 -23.469999
v 33.325195 -0.033887 -24.000000
v 31.447636 0.257938 -23.469999
v 32.338223 -0.030198 -23.844769
v 32.082462 -0.002230 -23.776001
v 32.339977 0.012567 -23.844769
v 31.672356 0.008287 -23.469999
v 8.000000 10.651989 -23.469999
v 8.487766 10.979519 -23.469999
v 7.470000 12.039724 -24.000000
v 8.143536 10.978131 -23.469999
v 7.981427 11.232875 -23.776001
v 7.932436 11.410166 -23.844769
v 7.844767 11.345860 -23.844769
v -47.269539 0.316737 -23.489279
v -47.326504 0.000001 -24.000000
v -47.238365 -0.307515 -23.399273
v -47.374336 0.232197 -23.854019
v -47.515518 0.002255 -23.748865
v -47.370464 -0.224812 -23.830055
v -47.408588 0.002204 -23.365969
v 24.219742 15.683265 -23.489279
v 23.142441 16.000002 -23.469999
v 24.335241 15.329518 -24.000000
v 23.700552 15.907231 -23.469910
v 23.932247 15.806597 -23.778057
v 23.680004 15.804473 -23.843761
v 24.359690 15.576016 -23.853907
v 47.269539 0.316737 -23.489279
v 47.326504 0.000001 -24.000000
v 47.238365 -0.307515 -23.399273
v 47.374336 0.232197 -23.854019
v 47.515518 0.002255 -23.748865
v 47.370464 -0.224812 -23.830055
v 47.408588 0.002204 -23.365969
v -0.447932 0.316733 70.153931
v -0.460718 -0.307149 70.157127
v 0.447932 0.316733 70.153931
v 0.460718 -0.307149 70.157127
v -0.609275 0.002284 70.232979
v 0.000000 0.002391 71.086563
v 0.000000 -0.421649 70.195290
v 0.609275 0.002284 70.232979
v 0.000000 0.428057 70.191040
v -0.447931 15.683264 24.054344
v 0.000000 15.999999 22.814884
v 0.000000 15.794588 24.091450
v 0.000000 15.889260 23.737972
v -0.243425 15.907230 23.444344
v -0.460227 -15.890971 23.406635
v 0.000000 -16.000002 22.814884
v -0.285720 -15.967958 23.178358
v 0.000000 -15.977681 23.432570
v 0.447931 15.683264 24.054344
v 0.000000 -16.005350 23.444765
v -8.497593 -9.544045 -20.000000
v -8.000000 -9.191801 -20.000000
v -8.145741 -9.524573 -20.000000
v -31.444752 0.259286 -20.000000
v -31.430828 -0.231133 -20.000000
v -31.670666 0.008246 -20.000000
v -8.000000 10.650977 -20.000000
v -8.488069 10.979378 -20.000000
v -8.142951 10.977595 -20.000000
v 0.243425 15.907230 23.444344
v 0.460227 -15.890971 23.406635
v 0.285720 -15.967958 23.178358
v -9.056108 -6.385856 -13.280327
v -9.145641 -5.537452 -12.784034
v -8.570587 -6.090226 -13.312116
v -9.133122 -6.025185 -12.929396
v -8.817327 -6.139283 -12.985856
v -8.757679 -5.813839 -12.938705
v -8.718873 -6.370610 -13.225828
v -21.647741 -0.118457 -13.223148
v -21.657722 0.445841 -13.215828
v -20.432138 0.191688 -12.784033
v -21.721819 0.159992 -13.119261
v -21.339083 0.168328 -12.947252
v -21.068176 0.358592 -12.910502
v -21.061804 -0.006455 -12.912647
v -8.570587 7.401718 -13.312116
v -9.145641 6.779764 -12.784034
v -9.043195 7.669441 -13.280056
v -8.757679 7.090741 -12.938705
v -8.815417 7.423988 -12.984943
v -9.130259 7.286004 -12.929317
v -8.715379 7.671026 -13.221602
v 8.497593 -9.544045 -20.000000
v 8.000000 -9.191801 -20.000000
v 8.145741 -9.524573 -20.000000
v 31.444752 0.259286 -20.000000
v 31.430828 -0.231133 -20.000000
v 31.670666 0.008246 -20.000000
v 8.000000 10.650977 -20.000000
v 8.488069 10.979378 -20.000000
v 8.142951 10.977595 -20.000000
v 9.056108 -6.385856 -13.280327
v 9.145641 -5.537452 -12.784034
v 8.570587 -6.090226 -13.312116
v 9.133122 -6.025185 -12.929396
v 8.817327 -6.139283 -12.985856
v 8.757679 -5.813839 -12.938705
v 8.718873 -6.370610 -13.225828
v 21.647741 -0.118457 -13.223148
v 21.657722 0.445841 -13.215828
v 20.432138 0.191688 -12.784033
v 21.721819 0.159992 -13.119261
v 21.339083 0.168328 -12.947252
v -0.000002 -15.348450 -24.000000
v 0.000000 -15.809999 -23.843748
v 0.000000 -15.999999 -23.469999
v 0.000000 16.000002 -23.469999
v 0.000000 15.804303 -23.843758
v -0.000002 15.328926 -24.000000
v 0.000000 -10.533372 -24.000000
v 0.000000 12.039724 -24.000000
v 21.068176 0.358592 -12.910502
v 21.061804 -0.006455 -12.912647
v 8.570587 7.401718 -13.312116
v 9.145641 6.779764 -12.784034
v 9.043195 7.669441 -13.280056
v 8.757679 7.090741 -12.938705
v 8.815417 7.423988 -12.984943
v 9.130259 7.286004 -12.929317
v 8.715379 7.671026 -13.221602
vn 0.2042 0.9420 -0.2663
vn -0.9525 0.1547 -0.2622
vn -0.0276 0.0408 -0.9988
vn -0.4946 0.7049 -0.5083
vn -0.3388 0.4757 -0.8118
vn -0.3589 0.1241 -0.9251
vn 0.0078 0.3713 -0.9285
vn -0.0281 -0.9759 -0.2165
vn -0.4320 -0.8990 0.0713
vn -0.1602 -0.3084 -0.9377
vn -0.1717 -0.9807 -0.0936
vn -0.2499 -0.8541 -0.4561
vn -0.4128 -0.7814 -0.4680
vn -0.0535 -0.6745 -0.7363
vn 0.4896 0.8298 -0.2677
vn 0.0216 0.0006 -0.9998
vn 0.5321 -0.8031 -0.2681
vn 0.1977 0.2274 -0.9535
vn 0.4771 0.0138 -0.8787
vn 0.2092 -0.2143 -0.9541
vn 0.7596 0.0211 -0.6500
vn -0.9524 -0.1539 -0.2633
vn 0.2524 -0.9299 -0.2677
vn -0.0249 -0.0390 -0.9989
vn -0.4719 -0.7084 -0.5248
vn -0.3220 -0.4750 -0.8189
vn 0.0247 -0.3585 -0.9332
vn -0.3487 -0.1203 -0.9295
vn -0.4849 0.8687 0.1008
vn -0.0682 0.9792 -0.1910
vn -0.1306 0.2780 -0.9517
vn -0.2705 0.9624 -0.0242
vn -0.2905 0.8417 -0.4551
vn -0.0748 0.7044 -0.7059
vn -0.4088 0.7621 -0.5020
vn -0.2042 0.9420 -0.2663
vn 0.9525 0.1547 -0.2622
vn 0.0276 0.0408 -0.9988
vn 0.4946 0.7049 -0.5083
vn 0.3388 0.4757 -0.8118
vn 0.3589 0.1241 -0.9251
vn -0.0078 0.3713 -0.9285
vn 0.0281 -0.9759 -0.2165
vn 0.4320 -0.8990 0.0713
vn 0.1602 -0.3084 -0.9377
vn 0.1717 -0.9807 -0.0936
vn 0.2499 -0.8541 -0.4561
vn 0.4128 -0.7814 -0.4680
vn 0.0535 -0.6745 -0.7363
vn -0.4896 0.8298 -0.2677
vn -0.0216 0.0006 -0.9998
vn -0.5321 -0.8031 -0.2681
vn -0.1977 0.2274 -0.9535
vn -0.4771 0.0138 -0.8787
vn -0.2092 -0.2143 -0.9541
vn -0.7596 0.0211 -0.6500
vn 0.9524 -0.1539 -0.2633
vn -0.2524 -0.9299 -0.2677
vn 0.0249 -0.0390 -0.9989
vn 0.4719 -0.7084 -0.5248
vn 0.3220 -0.4750 -0.8189
vn -0.0247 -0.3585 -0.9332
vn 0.3487 -0.1203 -0.9295
vn -0.7019 0.6876 0.1859
vn -0.4758 -0.0330 -0.8789
vn -0.6984 -0.6829 0.2141
vn -0.7235 0.5446 -0.4243
vn -0.9943 -0.0137 -0.1057
vn -0.7239 -0.5826 -0.3695
vn -0.9406 -0.0004 0.3395
vn 0.4849 0.8687 0.1008
vn 0.0682 0.9792 -0.1910
vn 0.1306 0.2780 -0.9517
vn 0.2705 0.9624 -0.0242
vn 0.2905 0.8417 -0.4551
vn 0.0748 0.7044 -0.7059
vn 0.4088 0.7621 -0.5020
vn 0.7019 0.6876 0.1859
vn 0.4758 -0.0330 -0.8789
vn 0.6984 -0.6829 0.2141
vn 0.7235 0.5446 -0.4243
vn 0.9943 -0.0137 -0.1057
vn 0.7239 -0.5826 -0.3695
vn 0.9406 -0.0004 0.3395
vn -0.5215 0.7521 0.4030
vn -0.5260 -0.7471 0.4065
vn 0.5215 0.7521 0.4030
vn 0.5260 -0.7471 0.4065
vn -0.8252 0.0067 0.5648
vn -0.0000 0.0020 1.0000
vn -0.0000 -0.9030 0.4296
vn 0.8252 0.0067 0.5648
vn -0.0000 0.9039 0.4277
vn -0.3916 0.8801 0.2682
vn -0.0000 0.9972 0.0747
vn -0.0000 0.9569 0.2906
vn -0.0000 0.9728 0.2318
vn -0.2343 0.9576 0.1674
vn -0.3655 -0.9035 0.2239
vn -0.0000 -0.9996 0.0288
vn -0.1549 -0.9854 0.0711
vn -0.0000 -0.9984 0.0563
vn 0.3916 0.8801 0.2682
vn -0.0000 -0.9792 0.2027
vn 0.1662 0.9611 -0.2207
vn -0.9686 0.2287 -0.0978
vn -0.5323 0.8240 -0.1943
vn 0.5943 -0.7216 -0.3550
vn 0.5562 0.7536 -0.3502
vn 0.9155 0.0249 -0.4016
vn -0.9681 -0.2293 -0.1007
vn 0.2145 -0.9499 -0.2273
vn -0.5096 -0.8363 -0.2021
vn 0.2343 0.9576 0.1674
vn 0.3655 -0.9035 0.2239
vn 0.1549 -0.9854 0.0711
vn 0.1922 0.8051 -0.5612
vn -0.1113 0.1245 -0.9860
vn -0.9309 0.1639 -0.3266
vn 0.1021 0.4810 -0.8708
vn -0.3539 0.4764 -0.8049
vn -0.6058 0.1267 -0.7855
vn -0.4802 0.6732 -0.5623
vn 0.4049 0.6279 -0.6647
vn 0.4346 -0.5952 -0.6759
vn 0.1234 0.0054 -0.9923
vn 0.4915 0.0201 -0.8706
vn 0.3622 0.0172 -0.9319
vn 0.2789 -0.3243 -0.9039
vn 0.2620 0.3483 -0.9000
vn -0.9297 -0.1615 -0.3311
vn -0.1053 -0.1200 -0.9872
vn 0.2361 -0.7857 -0.5718
vn -0.6003 -0.1217 -0.7905
vn -0.3326 -0.4675 -0.8190
vn 0.1282 -0.4620 -0.8776
vn -0.4569 -0.6721 -0.5827
vn -0.1662 0.9611 -0.2207
vn 0.9686 0.2287 -0.0978
vn 0.5323 0.8240 -0.1943
vn -0.5943 -0.7216 -0.3550
vn -0.5562 0.7536 -0.3502
vn -0.9155 0.0249 -0.4016
vn 0.9681 -0.2293 -0.1007
vn -0.2145 -0.9499 -0.2273
vn 0.5096 -0.8363 -0.2021
vn -0.1922 0.8051 -0.5612
vn 0.1113 0.1245 -0.9860
vn 0.9309 0.1639 -0.3266
vn -0.1021 0.4810 -0.8708
vn 0.3539 0.4764 -0.8049
vn 0.6058 0.1267 -0.7855
vn 0.4802 0.6732 -0.5623
vn -0.4049 0.6279 -0.6647
vn -0.4346 -0.5952 -0.6759
vn -0.1234 0.0054 -0.9923
vn -0.4915 0.0201 -0.8706
vn -0.3622 0.0172 -0.9319
vn -0.0000 -0.1622 -0.9868
vn -0.0000 -0.6539 -0.7566
vn -0.0000 -0.9724 -0.2334
vn -0.0000 0.9711 -0.2388
vn -0.0000 0.6466 -0.7628
vn -0.0000 0.1582 -0.9874
vn -0.0000 -0.0000 -1.0000
vn -0.2789 -0.3243 -0.9039
vn -0.2620 0.3483 -0.9000
vn 0.9297 -0.1615 -0.3311
vn 0.1053 -0.1200 -0.9872
vn -0.2361 -0.7857 -0.5718
vn 0.6003 -0.1217 -0.7905
vn 0.3326 -0.4675 -0.8190
vn -0.1282 -0.4620 -0.8776
vn 0.4569 -0.6721 -0.5827
s 1
usemtl hi_ship
f 165//165 3//3 24//24 166//165
f 166//165 24//24 16//16 31//31 164//164
f 17//17 23//23 112//112 108//108
f 86//86 66//66 9//9
f 1//1 15//15 109//109 105//105
f 162//162 30//30 95//95
f 105//105 109//109 124//124 117//117
f 65//65 31//31 16//16
f 65//65 16//16 10//10
f 99//99 86//86 9//9
f 57//57 60//60 146//146 144//144
f 42//42 36//36 50//50 53//53
f 115//115 44//44 88//88
f 85//85 94//94 29//29 64//64
f 60//60 58//58 145//145 146//146
f 22//22 2//2 106//106 111//111
f 46//46 44//44 115//115 116//116
f 146//146 145//145 171//170 175//174
f 111//111 106//106 119//119 131//131
f 144//144 146//146 175//174 169//168
f 108//108 112//112 133//133 125//125
f 100//100 8//8 161//161
f 1//1 4//4 5//5 7//7
f 2//2 6//6 5//5 4//4
f 3//3 7//7 5//5 6//6
f 15//15 18//18 19//19 21//21
f 16//16 20//20 19//19 18//18
f 17//17 21//21 19//19 20//20
f 22//22 25//25 26//26 28//28
f 23//23 27//27 26//26 25//25
f 24//24 28//28 26//26 27//27
f 36//36 138//138 142//142 50//50
f 166//165 164//164 73//73 51//51 59//59
f 88//88 44//44 80//80
f 79//79 45//45 51//51
f 138//138 147//147 154//154 142//142
f 79//79 51//51 73//73
f 141//141 155//155 171//170 145//145
f 87//87 78//78 71//71 103//103
f 144//144 169//168 149//149 139//139
f 50//50 56//56 54//54 53//53
f 59//59 62//62 61//61 63//63
f 52//52 55//55 54//54 56//56
f 58//58 60//60 61//61 62//62
f 153//153 147//147 138//138 140//140
f 3//3 16//16 18//18 7//7
f 7//7 18//18 15//15 1//1
f 2//2 22//22 28//28 6//6
f 6//6 28//28 24//24 3//3
f 36//36 42//42 40//40 39//39
f 37//37 39//39 40//40 41//41
f 11//11 101//101 99//99 9//9
f 1//1 105//105 107//107 4//4
f 4//4 107//107 106//106 2//2
f 22//22 111//111 113//113 25//25
f 25//25 113//113 112//112 23//23
f 16//16 24//24 27//27 20//20
f 20//20 27//27 23//23 17//17
f 162//162 95//95 72//72
f 52//52 141//141 145//145 58//58
f 57//57 144//144 139//139 37//37
f 38//38 41//41 40//40 42//42
f 57//57 63//63 61//61 60//60
f 38//38 42//42 53//53 51//51
f 41//41 38//38 59//59 63//63
f 37//37 41//41 63//63 57//57
f 39//39 37//37 139//139 140//140
f 36//36 39//39 140//140 138//138
f 55//55 52//52 58//58 62//62
f 51//51 55//55 62//62 59//59
f 17//17 108//108 110//110 21//21
f 21//21 110//110 109//109 15//15
f 52//52 56//56 143//143 141//141
f 56//56 50//50 142//142 143//143
f 149//149 153//153 140//140 139//139
f 165//165 38//38 51//51 45//45 159//159
f 111//111 131//131 137//137 113//113
f 113//113 137//137 133//133 112//112
f 124//124 109//109 110//110 127//127
f 127//127 110//110 108//108 125//125
f 119//119 106//106 107//107 123//123
f 123//123 107//107 105//105 117//117
f 154//154 157//157 143//143 142//142
f 157//157 155//155 141//141 143//143
f 165//165 159//159 10//10 16//16 3//3
f 51//51 53//53 54//54 55//55
f 100//100 161//161 43//43
f 165//165 166//165 59//59 38//38
usemtl emissive
f 155//155 157//157 158//158 167//166
f 167//166 156//156 170//169 174//173
f 132//132 118//118 126//126
f 149//149 152//152 151//151 153//153
f 148//148 150//150 151//151 152//152
f 171//170 174//173 173//172 175//174
f 117//117 120//120 121//121 123//123
f 118//118 122//122 121//121 120//120
f 119//119 123//123 121//121 122//122
f 124//124 127//127 128//128 130//130
f 125//125 129//129 128//128 127//127
f 126//126 130//130 128//128 129//129
f 131//131 134//134 135//135 137//137
f 132//132 136//136 135//135 134//134
f 133//133 137//137 135//135 136//136
f 152//152 149//149 169//168 172//171
f 147//147 150//150 168//167 154//154
f 148//148 152//152 172//171 170//169
f 170//169 156//156 148//148
f 169//168 175//174 173//172 172//171
f 147//147 153//153 151//151 150//150
f 154//154 168//167 158//158 157//157
f 156//156 167//166 158//158 168//167
f 117//117 124//124 130//130 120//120
f 120//120 130//130 126//126 118//118
f 118//118 132//132 134//134 122//122
f 122//122 134//134 131//131 119//119
f 125//125 133//133 136//136 129//129
f 129//129 136//136 132//132 126//126
f 150//150 148//148 156//156 168//167
f 155//155 167//166 174//173 171//170
f 170//169 172//171 173//172 174//173
usemtl hi_ship
f 115//115 104//104 102//102 116//116
f 88//88 91//91 104//104 115//115
f 8//8 11//11 12//12 14//14
f 9//9 13//13 12//12 11//11
f 10//10 14//14 12//12 13//13
f 29//29 32//32 33//33 35//35
f 30//30 34//34 33//33 32//32
f 31//31 35//35 33//33 34//34
f 43//43 49//49 47//47 46//46
f 45//45 48//48 47//47 49//49
f 64//64 67//67 68//68 70//70
f 65//65 69//69 68//68 67//67
f 66//66 70//70 68//68 69//69
f 95//95 97//97 114//114
f 87//87 93//93 90//90 92//92
f 103//103 114//114 97//97 96//96
f 85//85 89//89 90//90 93//93
f 86//86 91//91 90//90 89//89
f 94//94 96//96 97//97 98//98
f 95//95 98//98 97//97
f 99//99 101//101 102//102 104//104
f 84//84 78//78 87//87 92//92
f 80//80 84//84 92//92 88//88
f 93//93 87//87 103//103 96//96
f 73//73 77//77 81//81 79//79
f 77//77 71//71 78//78 81//81
f 49//49 43//43 161//161 160//160
f 72//72 76//76 163//163 162//162
f 66//66 86//86 89//89 70//70
f 70//70 89//89 85//85 64//64
f 29//29 94//94 98//98 32//32
f 32//32 98//98 95//95 30//30
f 8//8 100//100 101//101 11//11
f 43//43 46//46 116//116 100//100
f 74//74 72//72 95//95 114//114
f 9//9 66//66 69//69 13//13
f 13//13 69//69 65//65 10//10
f 31//31 65//65 67//67 35//35
f 35//35 67//67 64//64 29//29
f 44//44 46//46 47//47 48//48
f 71//71 77//77 75//75 74//74
f 78//78 84//84 82//82 81//81
f 79//79 81//81 82//82 83//83
f 71//71 74//74 114//114 103//103
f 80//80 83//83 82//82 84//84
f 88//88 92//92 90//90 91//91
f 93//93 96//96 94//94 85//85
f 86//86 99//99 104//104 91//91
f 45//45 49//49 160//160 159//159
f 76//76 73//73 164//164 163//163
f 44//44 48//48 83//83 80//80
f 48//48 45//45 79//79 83//83
f 72//72 74//74 75//75 76//76
f 34//34 163//163 164//164 31//31
f 30//30 162//162 163//163 34//34
f 14//14 160//160 161//161 8//8
f 10//10 159//159 160//160 14//14
f 73//73 76//76 75//75 77//77
f 101//101 100//100 102//102
f 116//116 102//102 100//100
